:FULLY-SPECIFIED
:FORCE-ALL-JOINTS-BE-3DOF
:DEGREES
1733
root -5.43784 15.5434 26.7342 -172.889 -12.0695 -171.639
lfemur -47.6218 22.2386 -22.6953
ltibia 62.8155 -0 0
lfoot -17.3846 33.8374 -0.250435
ltoes -2.75523 0 0
rfemur -22.836 -15.4937 15.7325
rtibia 69.146 -0 0
rfoot -8.16559 -24.7065 -0.0119573
rtoes 10.9215 -0 0
lowerback 15.0689 1.72988 -4.66428
upperback -1.04388 1.71079 3.40766
thorax -9.77148 1.1447 6.011
lowerneck 4.85135 -14.9815 -15.7828
upperneck -3.16493 -21.3654 22.2451
head 2.62517 -11.0635 8.42381
lclavicle 4.07264e-14 2.64581e-14 -5.19354e-30
lhumerus -46.2398 -48.0593 119.523
lradius 95.3216 -0 0
lwrist 39.1287 0 0
lhand -4.8612 41.5392 0.161829
lfingers 7.12502 -0 0
lthumb 20.9232 70.3916 0.14581
rclavicle 4.07264e-14 2.64581e-14 -5.19354e-30
rhumerus 53.9251 31.983 -21.5269
rradius 111.522 -0 0
rwrist -16.4727 0 0
rhand 6.69421 -27.4156 0.15912
rfingers 7.12502 -0 0
rthumb 31.9528 -54.276 0.250452
1734
root -5.34797 15.5431 26.77 -172.741 -9.21656 -171.551
lfemur -47.0356 21.8934 -21.9259
ltibia 63.2586 -0 0
lfoot -17.0787 33.2665 -0.287479
ltoes -3.51235 0 0
rfemur -23.0111 -16.2193 16.0724
rtibia 68.726 -0 0
rfoot -8.36637 -24.6648 -0.0137228
rtoes 10.2802 -0 0
lowerback 15.0468 1.87331 -4.54032
upperback -1.04273 1.91948 3.31713
thorax -9.76059 1.23595 5.79265
lowerneck 4.57481 -14.7434 -15.574
upperneck -2.90309 -21.008 21.9375
head 2.63718 -10.8563 8.32389
lclavicle 3.70793e-14 2.54608e-14 -5.96023e-30
lhumerus -47.1187 -47.0795 119.303
lradius 95.6338 -0 0
lwrist 38.4036 0 0
lhand -5.15053 41.1485 0.185746
lfingers 7.12502 -0 0
lthumb 20.6447 70.0257 0.167357
rclavicle 3.70793e-14 2.54608e-14 -5.96023e-30
rhumerus 52.5089 31.2607 -22.6865
rradius 109.162 -0 0
rwrist -15.657 0 0
rhand 5.93899 -27.5623 0.182676
rfingers 7.12502 -0 0
rthumb 31.2291 -54.5169 0.287527
1735
root -5.25277 15.5427 26.808 -172.58 -6.1946 -171.45
lfemur -46.4217 21.5198 -21.1172
ltibia 63.7279 -0 0
lfoot -16.7542 32.6616 -0.323394
ltoes -4.3144 0 0
rfemur -23.2021 -16.9868 16.4365
rtibia 68.2811 -0 0
rfoot -8.57908 -24.6206 -0.0154338
rtoes 9.60086 -0 0
lowerback 15.0237 2.02535 -4.40902
upperback -1.04186 2.14057 3.22122
thorax -9.74943 1.33266 5.56136
lowerneck 4.28328 -14.4902 -15.3544
upperneck -2.62863 -20.6279 21.6143
head 2.64949 -10.6368 8.21815
lclavicle 3.32157e-14 2.44043e-14 -6.70317e-30
lhumerus -48.0386 -46.0442 119.051
lradius 95.9644 -0 0
lwrist 37.6355 0 0
lhand -5.4572 40.7344 0.208929
lfingers 7.12502 -0 0
lthumb 20.3496 69.6379 0.188242
rclavicle 3.32157e-14 2.44043e-14 -6.70317e-30
rhumerus 51.0393 30.4694 -23.8822
rradius 106.662 -0 0
rwrist -14.7928 0 0
rhand 5.13887 -27.718 0.205519
rfingers 7.12502 -0 0
rthumb 30.4623 -54.7727 0.32348
1736
root -5.15281 15.5424 26.8479 -172.406 -3.02149 -171.336
lfemur -45.7848 21.1189 -20.2748
ltibia 64.2208 -0 0
lfoot -16.4131 32.0261 -0.357419
ltoes -5.15665 0 0
rfemur -23.4092 -17.7916 16.8234
rtibia 67.8139 -0 0
rfoot -8.80241 -24.5743 -0.0170537
rtoes 8.88745 -0 0
lowerback 14.9999 2.18506 -4.27119
upperback -1.04136 2.37273 3.12048
thorax -9.73813 1.43427 5.31848
lowerneck 3.97858 -14.2231 -15.1255
upperneck -2.34355 -20.2272 21.2779
head 2.66196 -10.4063 8.10725
lclavicle 2.91585e-14 2.32949e-14 -7.40666e-30
lhumerus -48.9935 -44.96 118.766
lradius 96.3116 -0 0
lwrist 36.8289 0 0
lhand -5.77948 40.2993 0.230892
lfingers 7.12502 -0 0
lthumb 20.0395 69.2305 0.208026
rclavicle 2.91585e-14 2.32949e-14 -7.40666e-30
rhumerus 49.5296 29.6106 -25.1019
rradius 104.037 -0 0
rwrist -13.8854 0 0
rhand 4.29859 -27.8818 0.227164
rfingers 7.12502 -0 0
rthumb 29.6568 -55.0417 0.357546
1737
root -5.04863 15.542 26.8894 -172.219 0.284862 -171.207
lfemur -45.1297 20.6919 -19.4045
ltibia 64.7346 -0 0
lfoot -16.0572 31.3637 -0.388848
ltoes -6.03437 0 0
rfemur -23.632 -18.6288 17.2317
rtibia 67.3269 -0 0
rfoot -9.03519 -24.5259 -0.0185498
rtoes 8.14398 -0 0
lowerback 14.9754 2.35156 -4.12761
upperback -1.04126 2.61468 3.01549
thorax -9.72682 1.54022 5.06538
lowerneck 3.66259 -13.9436 -14.8888
upperneck -2.04996 -19.808 20.9305
head 2.67447 -10.1661 7.99182
lclavicle 2.49305e-14 2.21387e-14 -8.05618e-30
lhumerus -49.978 -43.8339 118.449
lradius 96.6735 -0 0
lwrist 35.9883 0 0
lhand -6.11544 39.8459 0.25117
lfingers 7.12502 -0 0
lthumb 19.7162 68.8059 0.226294
rclavicle 2.49305e-14 2.21387e-14 -8.05618e-30
rhumerus 47.9925 28.6868 -26.3341
rradius 101.301 -0 0
rwrist -12.9397 0 0
rhand 3.42286 -28.0529 0.247162
rfingers 7.12502 -0 0
rthumb 28.8173 -55.3226 0.38902
1738
root -4.9408 15.5417 26.9324 -172.016 3.70655 -171.062
lfemur -44.4609 20.2403 -18.5118
ltibia 65.2662 -0 0
lfoot -15.6885 30.6778 -0.417042
ltoes -6.94284 0 0
rfemur -23.8705 -19.4937 17.6601
rtibia 66.8229 -0 0
rfoot -9.27613 -24.4758 -0.0198914
rtoes 7.37448 -0 0
lowerback 14.9505 2.52396 -3.97906
upperback -1.04163 2.86511 2.9068
thorax -9.7156 1.64992 4.80341
lowerneck 3.33719 -13.6529 -14.6458
upperneck -1.74974 -19.3724 20.5743
head 2.68689 -9.91744 7.87249
lclavicle 2.05543e-14 2.0942e-14 -8.6386e-30
lhumerus -50.9869 -42.6726 118.098
lradius 97.0481 -0 0
lwrist 35.1183 0 0
lhand -6.46333 39.3764 0.269359
lfingers 7.12502 -0 0
lthumb 19.3815 68.3663 0.242678
rclavicle 2.05543e-14 2.0942e-14 -8.6386e-30
rhumerus 46.4397 27.701 -27.5682
rradius 98.4695 -0 0
rwrist -11.961 0 0
rhand 2.51639 -28.2302 0.265104
rfingers 7.12502 -0 0
rthumb 27.9482 -55.6137 0.417258
1739
root -4.82988 15.5413 26.9767 -171.797 7.22563 -170.899
lfemur -43.7829 19.7656 -17.6021
ltibia 65.8131 -0 0
lfoot -15.3089 29.9722 -0.441436
ltoes -7.87731 0 0
rfemur -24.1244 -20.3815 18.1073
rtibia 66.3046 -0 0
rfoot -9.52397 -24.4244 -0.0210517
rtoes 6.58294 -0 0
lowerback 14.9254 2.70136 -3.8263
upperback -1.04251 3.12267 2.79498
thorax -9.70458 1.76282 4.53396
lowerneck 3.00416 -13.3525 -14.3979
upperneck -1.44473 -18.9225 20.2114
head 2.6991 -9.66165 7.74991
lclavicle 1.60528e-14 1.97111e-14 -9.14234e-30
lhumerus -52.0155 -41.4829 117.715
lradius 97.4334 -0 0
lwrist 34.2234 0 0
lhand -6.82132 38.8934 0.285093
lfingers 7.12502 -0 0
lthumb 19.0371 67.9141 0.256851
rclavicle 1.60528e-14 1.97111e-14 -9.14234e-30
rhumerus 44.882 26.6569 -28.7945
rradius 95.5567 -0 0
rwrist -10.9542 0 0
rhand 1.58392 -28.4129 0.28063
rfingers 7.12502 -0 0
rthumb 27.0542 -55.9136 0.441693
